<?xml version="1.0" encoding="utf-8"?>
<!-- Generator: Adobe Illustrator 26.0.1, SVG Export Plug-In . SVG Version: 6.00 Build 0)  -->
<svg version="1.1" id="Layer_1" xmlns="http://www.w3.org/2000/svg" xmlns:xlink="http://www.w3.org/1999/xlink" x="0px" y="0px"
	 viewBox="0 0 1920 1080" style="enable-background:new 0 0 1920 1080;" xml:space="preserve">
<style type="text/css">
	.st0{fill:url(#SVGID_1_);stroke:url(#SVGID_00000178204388106622605490000012846227230726187394_);stroke-miterlimit:10;}
	
		.st1{fill:url(#SVGID_00000077303870879658016370000003234570213769762477_);stroke:url(#SVGID_00000125590907311289252050000003255776796400967330_);stroke-miterlimit:10;}
	
		.st2{fill:url(#SVGID_00000060717780288501880860000004205988835156727453_);stroke:url(#SVGID_00000116941832239736567010000016152083883120444327_);stroke-miterlimit:10;}
	
		.st3{fill:url(#SVGID_00000088133702700254898810000008936018914418733715_);stroke:url(#SVGID_00000160885408816834159050000017907573178313293241_);stroke-miterlimit:10;}
	.st4{fill:url(#SVGID_00000077284155411901987310000000554197337819918479_);stroke:#006A29;stroke-miterlimit:10;}
	
		.st5{fill:url(#SVGID_00000075854200193269654350000001522953238005087889_);stroke:url(#SVGID_00000124130296382645010960000003933767003259734413_);stroke-miterlimit:10;}
	
		.st6{fill:url(#SVGID_00000007398100995478074470000006076088248845120186_);stroke:url(#SVGID_00000120521148335684095690000014212072069414455688_);stroke-miterlimit:10;}
	
		.st7{fill:url(#SVGID_00000021801001470189376000000018054384950511767441_);stroke:url(#SVGID_00000034767824110246286580000013696656261411057820_);stroke-miterlimit:10;}
	
		.st8{fill:url(#SVGID_00000013910535729463146990000015781434383889677743_);stroke:url(#SVGID_00000039838982846988948330000005356743562327912115_);stroke-miterlimit:10;}
	
		.st9{fill:url(#SVGID_00000136374236097958138540000004064336070319308468_);stroke:url(#SVGID_00000007404898516454274050000012050043738373904532_);stroke-miterlimit:10;}
	
		.st10{fill:url(#SVGID_00000085233847025770215630000014949917847601527710_);stroke:url(#SVGID_00000013157761818571077570000018330721039849226418_);stroke-miterlimit:10;}
	
		.st11{fill:url(#SVGID_00000082356328348324837000000004388974818873060522_);stroke:url(#SVGID_00000068665586656427418440000010260565476052966562_);stroke-miterlimit:10;}
</style>
<linearGradient id="SVGID_1_" gradientUnits="userSpaceOnUse" x1="866.4683" y1="372.0478" x2="1041.1743" y2="514.3588" gradientTransform="matrix(1.0144 -1.870145e-04 -1.870145e-04 0.9774 1.6276 24.5181)">
	<stop  offset="0" style="stop-color:#FF9DAC;stop-opacity:0.6"/>
	<stop  offset="1" style="stop-color:#C0AAFF;stop-opacity:0.8"/>
</linearGradient>
<linearGradient id="SVGID_00000107564467992948470920000008689594855739913101_" gradientUnits="userSpaceOnUse" x1="834.4127" y1="410.7882" x2="1060.7426" y2="410.7882" gradientTransform="matrix(1.0144 -1.870145e-04 -1.870145e-04 0.9774 1.6276 24.5181)">
	<stop  offset="0" style="stop-color:#FFB2EA;stop-opacity:0.7"/>
	<stop  offset="0.6166" style="stop-color:#C0AAFF;stop-opacity:0.7994"/>
	<stop  offset="1" style="stop-color:#C0AAFF;stop-opacity:0.8"/>
</linearGradient>
<path style="fill:url(#SVGID_1_);stroke:url(#SVGID_00000107564467992948470920000008689594855739913101_);stroke-miterlimit:10;" d="
	M1074,490.7c7-18.1,0-33.6-2-37.6c-11-21.8-37-26.8-51.2-29.6c-14.8-2.9-15.8,0.1-48.1-2.1c-21.9-1.5-32.9-2.2-41.8-5
	c-22.5-6.8-44.7-25.4-48.4-48.1c-1.6-9.9-2.6-15.7-0.5-23.5c2.1-7.8,6-13.3,3.6-19.9c-0.4-1-1.8-5.2-5.7-5.9c-4.3-1-9.1,2.6-11,4.2
	c-13.6,10.6-17.4,38.1-17.9,42.2c-2.5,19.1-4.9,39.2,2.7,63.8c9.2,30.2,27.6,47,41.3,59.4c12.5,11.3,40.8,36.6,86.6,42.7
	c28.4,3.8,45.1-2.2,49.1-3.6C1038.1,525.1,1064.7,514.8,1074,490.7z"/>
<linearGradient id="SVGID_00000160892150036285484340000000054447169832170401_" gradientUnits="userSpaceOnUse" x1="874.8107" y1="278.8148" x2="900.7142" y2="278.8148" gradientTransform="matrix(1.0144 -1.870145e-04 -1.870145e-04 0.9774 1.6276 24.5181)">
	<stop  offset="0" style="stop-color:#FFB2EA;stop-opacity:0.7"/>
	<stop  offset="0.2622" style="stop-color:#F3B1EE;stop-opacity:0.7262"/>
	<stop  offset="0.7295" style="stop-color:#D5ADF8;stop-opacity:0.7729"/>
	<stop  offset="1" style="stop-color:#C0AAFF;stop-opacity:0.8"/>
</linearGradient>
<linearGradient id="SVGID_00000012430994226261454200000017776179407408290181_" gradientUnits="userSpaceOnUse" x1="874.3107" y1="278.8148" x2="901.2142" y2="278.8148" gradientTransform="matrix(1.0144 -1.870145e-04 -1.870145e-04 0.9774 1.6276 24.5181)">
	<stop  offset="0" style="stop-color:#FFB2EA;stop-opacity:0.7"/>
	<stop  offset="0.6166" style="stop-color:#C0AAFF;stop-opacity:0.7994"/>
	<stop  offset="1" style="stop-color:#C0AAFF;stop-opacity:0.8"/>
</linearGradient>
<path style="fill:url(#SVGID_00000160892150036285484340000000054447169832170401_);stroke:url(#SVGID_00000012430994226261454200000017776179407408290181_);stroke-miterlimit:10;" d="
	M913.7,292.9c0.4,0.8,3.8,7.7-0.7,12.7c-4.1,4.6-12.8,4.8-18.1,1.5c-4.6-3-6.5-8.1-5.6-12.7c1-4.4,4.7-9.2,10.4-10
	C906.3,283.6,911.7,289,913.7,292.9z"/>
<linearGradient id="SVGID_00000129186808503772718030000002336963727755685019_" gradientUnits="userSpaceOnUse" x1="780.3221" y1="74.2301" x2="780.3221" y2="74.2301" gradientTransform="matrix(1.0144 -1.870145e-04 -1.870145e-04 0.9774 1.6276 24.5181)">
	<stop  offset="0" style="stop-color:#FFB2EA;stop-opacity:0.7"/>
	<stop  offset="0.2622" style="stop-color:#F3B1EE;stop-opacity:0.7262"/>
	<stop  offset="0.7295" style="stop-color:#D5ADF8;stop-opacity:0.7729"/>
	<stop  offset="1" style="stop-color:#C0AAFF;stop-opacity:0.8"/>
</linearGradient>
<linearGradient id="SVGID_00000108284507374461782210000017359633898988935055_" gradientUnits="userSpaceOnUse" x1="780.3221" y1="74.2301" x2="780.3221" y2="74.2301" gradientTransform="matrix(1.0144 -1.870145e-04 -1.870145e-04 0.9774 1.6276 24.5181)">
	<stop  offset="0" style="stop-color:#FFB2EA;stop-opacity:0.7"/>
	<stop  offset="0.6166" style="stop-color:#C0AAFF;stop-opacity:0.7994"/>
	<stop  offset="1" style="stop-color:#C0AAFF;stop-opacity:0.8"/>
</linearGradient>
<path style="fill:url(#SVGID_00000129186808503772718030000002336963727755685019_);stroke:url(#SVGID_00000108284507374461782210000017359633898988935055_);stroke-miterlimit:10;" d="
	M793.2,96.9"/>
<linearGradient id="SVGID_00000035533095321755413720000007798734750170178984_" gradientUnits="userSpaceOnUse" x1="1117.3127" y1="153.0079" x2="1474.6984" y2="-79.7579" gradientTransform="matrix(1.0144 -1.870145e-04 -1.870145e-04 0.9774 1.6276 24.5181)">
	<stop  offset="0" style="stop-color:#FF9DAC;stop-opacity:0.6"/>
	<stop  offset="0.2712" style="stop-color:#E7A6D8;stop-opacity:0.7107"/>
	<stop  offset="0.4902" style="stop-color:#D6ADF8;stop-opacity:0.8"/>
	<stop  offset="0.7141" style="stop-color:#CAABFC;stop-opacity:0.8879"/>
	<stop  offset="1" style="stop-color:#C0AAFF"/>
</linearGradient>
<linearGradient id="SVGID_00000069376070064045642310000007088841778015758014_" gradientUnits="userSpaceOnUse" x1="1104.3207" y1="87.1029" x2="1500.9894" y2="87.1029" gradientTransform="matrix(1.0144 -1.870145e-04 -1.870145e-04 0.9774 1.6276 24.5181)">
	<stop  offset="0" style="stop-color:#FFB2EA;stop-opacity:0.7"/>
	<stop  offset="0.6166" style="stop-color:#C0AAFF;stop-opacity:0.7994"/>
	<stop  offset="1" style="stop-color:#C0AAFF;stop-opacity:0.8"/>
</linearGradient>
<path style="fill:url(#SVGID_00000035533095321755413720000007798734750170178984_);stroke:url(#SVGID_00000069376070064045642310000007088841778015758014_);stroke-miterlimit:10;" d="
	M1238.5-1.7c3.2,12.9,6.3,33,1.9,56.8c-1.5,8.2-7.1,34.2-29.1,63c-40,52.9-93.4,61.3-88.7,80c3.8,15.1,42.1,21.9,65.8,22.5
	c53.6,1.3,93.7-27.7,111.2-40.5c42.4-31.4,33.5-47.7,88.7-93.5c19.4-16.2,37.7-28.4,53.6-39c31.1-20.8,59.2-36.7,80.4-48.1
	L1238.5-1.7z"/>
<linearGradient id="SVGID_00000082327666658296395040000010966786463440830132_" gradientUnits="userSpaceOnUse" x1="789.5573" y1="-160.135" x2="789.5573" y2="-160.135" gradientTransform="matrix(-1.9515 -8.477729e-04 -6.829718e-04 1.9672 2850.9194 252.7539)">
	<stop  offset="2.855923e-07" style="stop-color:#FF7BAC;stop-opacity:0.6"/>
	<stop  offset="0.1381" style="stop-color:#FE7DA0;stop-opacity:0.6"/>
	<stop  offset="0.3853" style="stop-color:#FD8282;stop-opacity:0.6"/>
	<stop  offset="0.7103" style="stop-color:#FA8B50;stop-opacity:0.6"/>
	<stop  offset="1" style="stop-color:#F7931E;stop-opacity:0.6"/>
</linearGradient>
<path style="fill:url(#SVGID_00000082327666658296395040000010966786463440830132_);stroke:#006A29;stroke-miterlimit:10;" d="
	M1310.2-62.9"/>
<linearGradient id="SVGID_00000024721752983111321150000010102861040102813339_" gradientUnits="userSpaceOnUse" x1="139.327" y1="44.9832" x2="1081.849" y2="1048.1031" gradientTransform="matrix(1.0144 -1.870145e-04 -1.870145e-04 0.9774 1.6276 24.5181)">
	<stop  offset="2.702927e-07" style="stop-color:#FF9DAC;stop-opacity:0.7"/>
	<stop  offset="0.1104" style="stop-color:#F89EB5;stop-opacity:0.7194"/>
	<stop  offset="0.2904" style="stop-color:#E6A2CD;stop-opacity:0.751"/>
	<stop  offset="0.5163" style="stop-color:#C8A8F5;stop-opacity:0.7907"/>
	<stop  offset="0.5695" style="stop-color:#C0AAFF;stop-opacity:0.8"/>
	<stop  offset="1" style="stop-color:#C0AAFF"/>
</linearGradient>
<linearGradient id="SVGID_00000088848167355270291810000011576395976464315523_" gradientUnits="userSpaceOnUse" x1="-0.4799" y1="527.4008" x2="1245.676" y2="527.4008" gradientTransform="matrix(1.0144 -1.870145e-04 -1.870145e-04 0.9774 1.6276 24.5181)">
	<stop  offset="0" style="stop-color:#FFB2EA;stop-opacity:0.7"/>
	<stop  offset="0.6166" style="stop-color:#C0AAFF;stop-opacity:0.7994"/>
	<stop  offset="1" style="stop-color:#C0AAFF;stop-opacity:0.8"/>
</linearGradient>
<path style="fill:url(#SVGID_00000024721752983111321150000010102861040102813339_);stroke:url(#SVGID_00000088848167355270291810000011576395976464315523_);stroke-miterlimit:10;" d="
	M1204,1000.5c-1.5-21.1-4.4-46.5-29.8-52.1c-10.5-1.3-19.3,2.9-26.8,8.5c-5.9,5.6-6,14.1-6,21.1c-0.1,22.5,11.8,42.3,28.3,59.1
	c17.8,19.8,43.1,26.8,67,38c0,1.4-1.6,2.8-1.6,2.8c-8.3,1.4-16,0.7-23.5-1.5c-8.5-2.3-14.4-5.7-21.1-9.8
	c-22.2-13.6-33.2-20.5-37.6-23.7c-15-11.5-27.9-21.3-38.8-37.4c-16.5-24.4-8.7-33.8-26.1-61.9c-6.8-10.7-16.1-25.4-33.9-36
	c-21-12.4-42.1-12.3-52.3-11.5c-7.1,0.8-42,3.6-68.7-21.1c-5.7-5.3-19.8-18.8-23.1-40.6c-3.3-21.5,4.5-46.3,23-60.2
	c14.9-11.2,31.7-11.7,36.8-11.7c13.6-0.3,15,3.1,29.6,5.4c3.6,0.6,34.9,5,56.1-15c11.2-10.6,15.3-23.5,17-30.1
	c0.9-7.4,2.2-25.1-7.3-43.1c-1.2-2.2-7-13.1-19-22.8c-10.5-8.3-20.4-11.8-27.5-14c-14.4-4.7-26.1-5.2-29.6-5.4
	c-34.1-2-70.1-20.5-76.2-23.9c-41.3-21.7-64.6-55.1-74.1-69c-10.3-14.9-17.7-29.5-19.1-32.3c-4-8.1-10.2-20.4-14.8-36.7
	c-7.2-25.2-6.7-45.9-6.4-57.2c0.5-14.7,1.4-37,11.7-62.5c4.3-10.8,12.3-31.3,30.7-50.6c12.4-13.2,25.7-21.8,37.1-29
	c9.4-6.2,18.9-11.4,27.5-16.2c2.9-1.6,13.6-7.4,24.8-12.8c15.9-7.8,26.8-11.9,49.4-20.5c33.9-12.9,51-19.7,67.9-27
	c15.3-6.6,25.8-11.1,39.1-18.3c18.9-10,43.3-22.5,68-46.3c12.2-11.8,28.4-29.8,43.1-55.1c4.3-8,11.5-23.9,11.8-45.2
	c0.3-15.7-3.5-28.4-6.3-36.1c-78.5-0.2-156.8-0.2-235.3-0.2C856-1.6,743.8-1.4,631.8-1.3l-544.7,0l-85.4,0l-0.2,747
	c-0.1,103.4-0.1,206.5,0,309.9c0,8.2,0.1,16.5-0.1,24.7c150.5,0,300.7,0.1,451.2,0.3c137.8,0.1,275.7,0.2,413.5,0.3
	c35.7,0,71.6,0,107.3,0.1c96.6,0.1,193.1,0,289.7,0.1C1232.3,1064,1208.5,1034.5,1204,1000.5z M985.5,999.2c0-9.1,13.8-9,13.8-0.1
	C999.3,1008.1,985.5,1008.2,985.5,999.2z"/>
<linearGradient id="SVGID_00000029735595502839306530000018421530514731888537_" gradientUnits="userSpaceOnUse" x1="-41.7865" y1="681.5476" x2="681.1369" y2="1187.142" gradientTransform="matrix(1.0144 -1.870145e-04 -1.870145e-04 0.9774 1.6276 24.5181)">
	<stop  offset="0" style="stop-color:#FF9DAC;stop-opacity:0.4"/>
	<stop  offset="0.1908" style="stop-color:#E8A2CB;stop-opacity:0.5286"/>
	<stop  offset="0.4106" style="stop-color:#D2A6E7;stop-opacity:0.6767"/>
	<stop  offset="0.6018" style="stop-color:#C5A9F9;stop-opacity:0.8055"/>
	<stop  offset="0.742" style="stop-color:#C0AAFF;stop-opacity:0.9"/>
</linearGradient>
<linearGradient id="SVGID_00000181771930953879285980000001933292612038620345_" gradientUnits="userSpaceOnUse" x1="-0.4567" y1="728.5562" x2="882.2501" y2="728.5562" gradientTransform="matrix(1.0144 -1.870145e-04 -1.870145e-04 0.9774 1.6276 24.5181)">
	<stop  offset="0" style="stop-color:#FFB2EA;stop-opacity:0.7"/>
	<stop  offset="0.6166" style="stop-color:#C0AAFF;stop-opacity:0.7994"/>
	<stop  offset="1" style="stop-color:#C0AAFF;stop-opacity:0.8"/>
</linearGradient>
<path style="fill:url(#SVGID_00000029735595502839306530000018421530514731888537_);stroke:url(#SVGID_00000181771930953879285980000001933292612038620345_);stroke-miterlimit:10;" d="
	M896.4,1079.4c-17,1.1-141.7,7.3-228.7-108.6c-50-66.5-27.3-136-68.8-197.6c-62.8-92.9-175.1-33.7-299.1-71
	c-82.2-24.8-191.2-96-297.9-307.2l-0.3,684L896.4,1079.4z"/>
<linearGradient id="SVGID_00000120538615652924351700000016770366585842459565_" gradientUnits="userSpaceOnUse" x1="340.0585" y1="966.6258" x2="340.0585" y2="966.6258" gradientTransform="matrix(1.0144 -1.870145e-04 -1.870145e-04 0.9774 1.6276 24.5181)">
	<stop  offset="0" style="stop-color:#FFB2EA;stop-opacity:0.7"/>
	<stop  offset="0.2622" style="stop-color:#F3B1EE;stop-opacity:0.7262"/>
	<stop  offset="0.7295" style="stop-color:#D5ADF8;stop-opacity:0.7729"/>
	<stop  offset="1" style="stop-color:#C0AAFF;stop-opacity:0.8"/>
</linearGradient>
<linearGradient id="SVGID_00000165226055597817095380000013091590872578333828_" gradientUnits="userSpaceOnUse" x1="340.0585" y1="966.6258" x2="340.0585" y2="966.6258" gradientTransform="matrix(1.0144 -1.870145e-04 -1.870145e-04 0.9774 1.6276 24.5181)">
	<stop  offset="0" style="stop-color:#FFB2EA;stop-opacity:0.7"/>
	<stop  offset="0.6166" style="stop-color:#C0AAFF;stop-opacity:0.7994"/>
	<stop  offset="1" style="stop-color:#C0AAFF;stop-opacity:0.8"/>
</linearGradient>
<path style="fill:url(#SVGID_00000120538615652924351700000016770366585842459565_);stroke:url(#SVGID_00000165226055597817095380000013091590872578333828_);stroke-miterlimit:10;" d="
	M346.4,969.3"/>
<linearGradient id="SVGID_00000113314199339876805520000004654239692091642240_" gradientUnits="userSpaceOnUse" x1="773.6096" y1="694.3854" x2="27.9817" y2="160.5804" gradientTransform="matrix(1.0144 -1.870145e-04 -1.870145e-04 0.9774 1.6276 24.5181)">
	<stop  offset="0" style="stop-color:#FF9DAC;stop-opacity:0.3"/>
	<stop  offset="0.211" style="stop-color:#F69FB8;stop-opacity:0.4055"/>
	<stop  offset="0.5883" style="stop-color:#DFA4D6;stop-opacity:0.5941"/>
	<stop  offset="1" style="stop-color:#C0AAFF;stop-opacity:0.8"/>
</linearGradient>
<linearGradient id="SVGID_00000107547864450008660730000001966793684622715015_" gradientUnits="userSpaceOnUse" x1="-6.3038" y1="361.4982" x2="915.8126" y2="361.4982" gradientTransform="matrix(1.0144 -1.870145e-04 -1.870145e-04 0.9774 1.6276 24.5181)">
	<stop  offset="0" style="stop-color:#FFB2EA;stop-opacity:0.7"/>
	<stop  offset="0.6166" style="stop-color:#C0AAFF;stop-opacity:0.7994"/>
	<stop  offset="1" style="stop-color:#C0AAFF;stop-opacity:0.8"/>
</linearGradient>
<path style="fill:url(#SVGID_00000113314199339876805520000004654239692091642240_);stroke:url(#SVGID_00000107547864450008660730000001966793684622715015_);stroke-miterlimit:10;" d="
	M929.9,624.1c-31.6,39.3-174.4,61.8-300.8,51.7c-27-2-251.9-23-370.5-178.6c-57-74.7-58.3-139.9-148.8-211.4
	c-42.4-33.6-84.7-52.8-114.1-64c0-48.1,0.1-96.2,0.1-144.3c10.1,1.5,20.7,3.5,31.8,6C48.3,88.1,66.7,93.8,83,99.9
	c31.8,13,79.9,36.6,125,78.9c87.4,81.9,69.6,145.6,137.7,236.7C441.2,543,598.2,580.7,635.5,589.7c109.8,26.5,201.5,17.1,252.4,6.7
	c1.8,3.6,13.6,9.9,16.4,13.8C925.8,619.1,930.9,621.1,929.9,624.1z"/>
<linearGradient id="SVGID_00000067194837856507912950000007127961791730564506_" gradientUnits="userSpaceOnUse" x1="1513.4869" y1="24.0885" x2="1513.4869" y2="24.0885" gradientTransform="matrix(-1.9515 -8.477729e-04 -6.829718e-04 1.9672 2850.9194 252.7539)">
	<stop  offset="2.855923e-07" style="stop-color:#FF7BAC;stop-opacity:0.6"/>
	<stop  offset="0.1381" style="stop-color:#FE7DA0;stop-opacity:0.6"/>
	<stop  offset="0.3853" style="stop-color:#FD8282;stop-opacity:0.6"/>
	<stop  offset="0.7103" style="stop-color:#FA8B50;stop-opacity:0.6"/>
	<stop  offset="1" style="stop-color:#F7931E;stop-opacity:0.6"/>
</linearGradient>
<linearGradient id="SVGID_00000064341769380291607080000012657815016155291780_" gradientUnits="userSpaceOnUse" x1="-102.748" y1="280.6487" x2="-102.748" y2="280.6487" gradientTransform="matrix(1.0144 -1.870145e-04 -1.870145e-04 0.9774 1.6276 24.5181)">
	<stop  offset="0" style="stop-color:#FFB2EA;stop-opacity:0.7"/>
	<stop  offset="0.6166" style="stop-color:#C0AAFF;stop-opacity:0.7994"/>
	<stop  offset="1" style="stop-color:#C0AAFF;stop-opacity:0.8"/>
</linearGradient>
<path style="fill:url(#SVGID_00000067194837856507912950000007127961791730564506_);stroke:url(#SVGID_00000064341769380291607080000012657815016155291780_);stroke-miterlimit:10;" d="
	M-102.7,298.9"/>
<linearGradient id="SVGID_00000116942815333096022670000006395411754740923817_" gradientUnits="userSpaceOnUse" x1="314.6397" y1="-83.5747" x2="872.1965" y2="541.1553" gradientTransform="matrix(1.0144 -1.870145e-04 -1.870145e-04 0.9774 1.6276 24.5181)">
	<stop  offset="2.651929e-07" style="stop-color:#FF9DAC;stop-opacity:0.5"/>
	<stop  offset="0.6337" style="stop-color:#C1AAFF"/>
	<stop  offset="1" style="stop-color:#C0AAFF"/>
</linearGradient>
<linearGradient id="SVGID_00000132777452688084682590000013644575362830342046_" gradientUnits="userSpaceOnUse" x1="-16.7828" y1="211.7692" x2="821.5605" y2="211.7692" gradientTransform="matrix(1.0144 -1.870145e-04 -1.870145e-04 0.9774 1.6276 24.5181)">
	<stop  offset="0" style="stop-color:#FFB2EA;stop-opacity:0.7"/>
	<stop  offset="0.6166" style="stop-color:#C0AAFF;stop-opacity:0.7994"/>
	<stop  offset="1" style="stop-color:#C0AAFF;stop-opacity:0.8"/>
</linearGradient>
<path style="fill:url(#SVGID_00000116942815333096022670000006395411754740923817_);stroke:url(#SVGID_00000132777452688084682590000013644575362830342046_);stroke-miterlimit:10;" d="
	M805.1,383.3c-4.8-8.5-18.9-2.1-35.5-5.6c-29-5.8-49.9-37.9-57.5-62.9c-9.4-30.6-1.3-57.2,3.2-71.2c11.5-35.6,27-36.7,63.8-95.9
	c14.7-23.5,21.9-41.3,31.2-62.8c17.7-41,31.2-73.3,20.3-85.2c-3.4-3.8-11.9-8.3-35.9,0.2c-269.2-0.2-538-0.3-806.9-0.5
	c0.2,6.6,0.5,16.1,0.1,27.6c-1,33.6-5.7,44.2-0.1,49.7c6.7,6.5,21.5-1.1,48.4-13.4c0,0,33.4-15.3,67.1-28.8
	c50.8-20.5,100.9-7.3,132.3,0.9c13.6,3.5,57.5,16.2,102.8,51.4c40.8,31.8,36.7,45.9,87.2,87.8c32.3,26.7,63.5,45.4,79.4,54.7
	c39.2,23.1,46.1,21.8,77.9,43.1c36.2,24.1,54.4,36.1,68.5,58.9c14.1,22.8,12.2,34.5,35.7,72.8c10.7,17.4,18.3,26.5,28,34.8
	c15,12.4,28.9,17.1,42.1,21.5c16.2,5.5,33.8,11.4,40.4,3.4c1.4-1.6,1.8-3.4,2.5-18.3c0.9-22.7,0.1-24.3,0.8-32.8
	C802.8,393,808.3,388.8,805.1,383.3z"/>
<linearGradient id="SVGID_00000130645989674212341920000003159582586898394267_" gradientUnits="userSpaceOnUse" x1="1521.4551" y1="8.0645" x2="1521.4551" y2="8.0645" gradientTransform="matrix(-1.9238 -1.235405e-03 -3.022386e-04 2.0126 2808.8557 234.039)">
	<stop  offset="2.855923e-07" style="stop-color:#FF7BAC;stop-opacity:0.6"/>
	<stop  offset="0.1381" style="stop-color:#FE7DA0;stop-opacity:0.6"/>
	<stop  offset="0.3853" style="stop-color:#FD8282;stop-opacity:0.6"/>
	<stop  offset="0.7103" style="stop-color:#FA8B50;stop-opacity:0.6"/>
	<stop  offset="1" style="stop-color:#F7931E;stop-opacity:0.6"/>
</linearGradient>
<linearGradient id="SVGID_00000109017937723551105220000013119122225087287188_" gradientUnits="userSpaceOnUse" x1="-118.072" y1="248.3898" x2="-118.072" y2="248.3898">
	<stop  offset="0" style="stop-color:#FFB2EA;stop-opacity:0.7"/>
	<stop  offset="0.6166" style="stop-color:#C0AAFF;stop-opacity:0.7994"/>
	<stop  offset="1" style="stop-color:#C0AAFF;stop-opacity:0.8"/>
</linearGradient>
<path style="fill:url(#SVGID_00000130645989674212341920000003159582586898394267_);stroke:url(#SVGID_00000109017937723551105220000013119122225087287188_);stroke-miterlimit:10;" d="
	M-118.1,248.4"/>
</svg>
